# xmcd
#
# Track frame offsets: 
#        150
#        18022
#        35760
#        63670
#        86115
#        114467
#        127322
#        142820
#        155262
#        175597
#        192705
#        211987
#        229547
#
# Disc length: 3315 seconds
#
# Revision: 2
# Processed by: cddbd v1.5.2PL0 Copyright (c) Steve Scherf et al.
# Submitted via: ExactAudioCopy v1.1
#
DISCID=b20cf10d
DTITLE=浅川マキ - DARKNESS Ⅲ [CD1 初期作品集 VOL.2)
DYEAR=1997
DGENRE=Blues
TTITLE0=こんな風に過ぎて行くのなら
TTITLE1=引越し
TTITLE2=町
TTITLE3=あなたなしで Trying to live my life with-out you
TTITLE4=淋しさには名前がない
TTITLE5=港の彼岸花
TTITLE6=オールド・レインコート Old Raincoat Won't ever let You Down An
TTITLE7=If I'm on the Late Side
TTITLE8=あたしのブギウギ
TTITLE9=眠るのが怖い
TTITLE10=かもめ
TTITLE11=あの男が死んだら When That Man is Dead and Gone
TTITLE12=赤い橋
EXTD=
EXTT0=
EXTT1=
EXTT2=
EXTT3=
EXTT4=
EXTT5=
EXTT6=
EXTT7=
EXTT8=
EXTT9=
EXTT10=
EXTT11=
EXTT12=
PLAYORDER=
